<svg xmlns="http://www.w3.org/2000/svg" viewBox="0 0 64 64" fill="none">
  <defs>
    <linearGradient id="screen" x1="24" y1="18" x2="54" y2="48" gradientUnits="userSpaceOnUse">
      <stop stop-color="#26B5FF"/>
      <stop offset="1" stop-color="#1849B5"/>
    </linearGradient>
    <linearGradient id="ticket" x1="9" y1="25" x2="30" y2="50" gradientUnits="userSpaceOnUse">
      <stop stop-color="#FF8A1F"/>
      <stop offset="1" stop-color="#FF4B2B"/>
    </linearGradient>
  </defs>
  <path d="M35 8c5 2 9 5 12 9l-4 3c-2-3-5-5-9-7l1-5Z" fill="#1E63D6"/>
  <path d="M46 17c3 2 6 5 8 9l-4 2c-1-3-3-5-6-7l2-4Z" fill="#25A7F2"/>
  <path d="M24 34h29a5 5 0 0 1 5 5v11a5 5 0 0 1-5 5H24a5 5 0 0 1-5-5V39a5 5 0 0 1 5-5Z" fill="#2D3A50"/>
  <path d="M27 38h23a2 2 0 0 1 2 2v8a2 2 0 0 1-2 2H27a2 2 0 0 1-2-2v-8a2 2 0 0 1 2-2Z" fill="url(#screen)"/>
  <path d="M30 58h17l-2-4H32l-2 4Z" fill="#394960"/>
  <path d="m7 37 14-6 9 18-14 6c-1 .4-2-.1-2.4-1.1l-1.1-2.4a3 3 0 0 1-2.5-1.8 3 3 0 0 1 .5-3l-1.1-2.4c-.4-1 .1-2 1.1-2.4Z" fill="url(#ticket)"/>
  <path d="m18 39 4 1-5 9-4-1 5-9Z" fill="#FFF3E8" opacity=".45"/>
  <path d="m15 44 4.5 4.5L26 37" stroke="#fff" stroke-linecap="round" stroke-linejoin="round" stroke-width="3.5"/>
  <circle cx="37" cy="44" r="2.2" fill="#F5FAFF"/>
  <circle cx="44" cy="44" r="2.2" fill="#F5FAFF"/>
  <circle cx="51" cy="44" r="2.2" fill="#F5FAFF"/>
</svg>
